<?xml version="1.0" encoding="iso-8859-1"?>
<!-- Generator: Adobe Illustrator 18.1.1, SVG Export Plug-In . SVG Version: 6.00 Build 0)  -->
<svg version="1.1" id="Capa_1" xmlns="http://www.w3.org/2000/svg" xmlns:xlink="http://www.w3.org/1999/xlink" x="0px" y="0px"
	 viewBox="0 0 24 24" style="enable-background:new 0 0 24 24;" xml:space="preserve">
<g>
	<path style="fill:#030104;" d="M12,11.953c-0.665,0-1.203,0.518-1.203,1.156c0,0.427,0.243,0.795,0.601,0.996v1.316
		C11.398,15.74,11.669,16,12,16s0.602-0.26,0.602-0.578v-1.316c0.358-0.201,0.602-0.569,0.602-0.996
		C13.203,12.471,12.665,11.953,12,11.953z"/>
	<path style="fill:#030104;" d="M12,0C5.373,0,0,5.373,0,12s5.373,12,12,12s12-5.373,12-12S18.627,0,12,0z M12,5
		c2.393,0,4,1.607,4,4h-1.25c0-1.519-1.231-2.75-2.75-2.75S9.25,7.481,9.25,9H8C8,6.607,9.607,5,12,5z M17,16.5
		c0,0.828-0.672,1.5-1.5,1.5h-7C7.672,18,7,17.328,7,16.5v-5C7,10.672,7.672,10,8.5,10h7c0.828,0,1.5,0.672,1.5,1.5V16.5z"/>
</g>
<g>
</g>
<g>
</g>
<g>
</g>
<g>
</g>
<g>
</g>
<g>
</g>
<g>
</g>
<g>
</g>
<g>
</g>
<g>
</g>
<g>
</g>
<g>
</g>
<g>
</g>
<g>
</g>
<g>
</g>
</svg>
